<?xml version="1.0" standalone="no"?>
<!DOCTYPE svg PUBLIC "-//W3C//DTD SVG 20010904//EN"
 "http://www.w3.org/TR/2001/REC-SVG-20010904/DTD/svg10.dtd">
<svg version="1.0" xmlns="http://www.w3.org/2000/svg"
 width="277.000000pt" height="197.000000pt" viewBox="0 0 277.000000 197.000000"
 preserveAspectRatio="xMidYMid meet">

<!-- 사진출처 : 위키미디어  -->
<g transform="translate(0.000000,197.000000) scale(0.100000,-0.100000)"
fill="#000000" stroke="none">
<path d="M1515 1929 c-46 -14 -73 -17 -115 -12 -30 4 -106 7 -168 8 -112 0
-112 0 -135 -29 -18 -22 -29 -28 -48 -23 -17 4 -42 -5 -84 -29 -33 -19 -67
-37 -75 -40 -8 -3 -23 -10 -33 -15 -10 -5 -22 -7 -27 -4 -5 3 -19 -9 -32 -26
-13 -17 -36 -38 -51 -46 -29 -15 -33 -18 -108 -83 -28 -24 -56 -40 -72 -40
-14 0 -30 -6 -34 -14 -4 -8 -27 -28 -50 -45 -41 -30 -81 -84 -142 -192 -17
-31 -38 -62 -46 -69 -8 -7 -15 -18 -15 -24 0 -6 -31 -45 -69 -87 -39 -42 -73
-88 -77 -103 -3 -14 -10 -29 -15 -32 -5 -3 -9 -16 -9 -30 0 -13 -9 -33 -19
-43 -28 -28 -51 -76 -51 -106 0 -15 -9 -38 -20 -52 -19 -25 -20 -41 -20 -409
l0 -384 214 0 c213 0 214 0 220 22 3 13 22 48 42 78 29 44 37 64 36 100 0 38
10 63 70 165 99 169 96 164 153 225 28 30 64 75 80 100 46 71 221 235 326 306
141 95 246 132 443 158 117 15 182 8 226 -26 59 -45 152 -146 172 -186 19 -40
20 -55 14 -159 -4 -75 -12 -125 -22 -146 -14 -25 -15 -49 -10 -132 4 -59 13
-109 22 -122 8 -12 14 -33 14 -46 0 -14 7 -30 15 -37 8 -7 15 -19 15 -27 0
-30 103 -50 231 -44 28 2 142 99 186 159 23 31 51 68 62 81 12 14 24 36 27 50
2 14 18 51 34 81 24 46 33 55 53 52 22 -2 25 2 31 45 4 31 0 67 -10 103 -28
97 -28 109 -5 134 18 19 21 30 15 65 -5 32 -3 46 11 61 21 23 14 63 -23 129
-18 32 -25 58 -23 92 1 33 -4 53 -19 72 -11 14 -20 30 -20 35 0 5 -18 26 -40
46 -22 19 -42 47 -46 61 -3 14 -10 25 -15 25 -5 0 -9 8 -9 19 0 30 -29 91 -44
91 -7 0 -29 14 -47 31 -19 17 -52 38 -74 48 -22 10 -46 26 -54 35 -7 9 -23 16
-35 16 -37 0 -71 24 -76 54 -4 23 -13 32 -44 43 -22 7 -47 21 -57 32 -14 14
-38 19 -131 24 -63 3 -126 11 -141 16 -15 6 -29 6 -32 1 -3 -5 -21 -2 -40 6
-46 19 -107 16 -180 -7z"/>
</g>
</svg>
